<svg xmlns="http://www.w3.org/2000/svg" viewBox="0 0 3333 3333" shape-rendering="geometricPrecision" text-rendering="geometricPrecision" image-rendering="optimizeQuality" fill-rule="evenodd" clip-rule="evenodd"><path d="M405 603l617 617 856-256c3-1 6-2 9-2 11-19 24-37 40-53 43-43 103-70 169-70s126 27 169 70 70 103 70 169-27 126-70 169c-18 18-38 32-60 44l-232 879 607 607c30 30 30 80 0 110-11 11-23 17-37 21-393 122-764 106-1090-3l98 350c2 6 3 13 3 19 0 32-26 58-58 58H536c-5 0-9-1-14-2-31-8-50-39-43-71l210-850-60-66c-177-205-310-444-387-692-109-347-107-712 36-1027 18-39 64-57 103-39 9 4 17 9 23 16zm912 2251c-11-5-23-10-34-15-184-84-352-198-497-332l-176 710h808l-101-362zm845-2738c-32-5-54-34-50-66 5-32 34-54 66-50 278 40 513 128 685 287 174 160 282 390 302 710 2 32-22 60-55 62-32 2-60-22-62-55-19-288-113-492-265-632-153-141-367-220-623-257zm16 291c-32-5-53-35-48-67s35-53 67-48c190 31 350 97 468 210 119 115 193 276 209 497 2 32-22 60-54 62s-60-22-62-54c-14-190-75-327-173-421-99-96-239-152-405-179zm-4 313c-32-3-55-32-52-64s32-55 64-52c112 12 206 49 276 115 70 67 115 161 128 289 3 32-20 61-52 64s-61-20-64-52c-11-99-43-169-93-217s-121-74-208-84zm-317 372l-741 222 327 327 449-438c-20-33-33-71-35-112zm118 193l-450 439 351 351 200-758c-37-3-71-14-102-32zm207-293c-22-22-53-36-86-36-34 0-64 14-86 36s-36 53-36 86c0 34 14 64 36 86s53 36 86 36c34 0 64-14 86-36s36-53 36-86c0-34-14-64-36-86z" fill-rule="nonzero"/></svg>