<svg xmlns="http://www.w3.org/2000/svg"  viewBox="0 0 230154 333334" shape-rendering="geometricPrecision" text-rendering="geometricPrecision" image-rendering="optimizeQuality" fill-rule="evenodd" clip-rule="evenodd"><path d="M163325 241641c1912 813 2803 3024 1988 4935-813 1912-3023 2802-4935 1990-12557-5381-21002-16550-26590-31741-13315-8245-25904-12379-37783-12515-11276-128-22024 3346-32256 10324 5979 5184 10874 11602 14628 19317 912 1871 133 4127-1738 5039s-4128 133-5039-1738c-5541-11385-13882-19535-24791-24720-11162-5305-25057-7587-41434-7123-2075 57-3803-1579-3860-3654s1578-3803 3654-3860c17572-498 32609 2012 44852 7831 2607 1239 5085 2626 7432 4160 12133-8839 24998-13246 38611-13091 11067 126 22549 3272 34454 9502-562-2156-1084-4372-1564-6644-3641-17213-5022-37723-5321-59813 2614-1546 5107-3272 7466-5161 148 23569 1417 45435 5224 63440 4560 21564 12725 37401 27004 43520v2zM75549 53941c4208 0 8019 1706 10778 4464 2757 2758 4464 6569 4464 10778 0 4208-1707 8019-4464 10778-2759 2757-6570 4464-10778 4464s-8019-1707-10777-4464c-2758-2759-4464-6570-4464-10778s1706-8019 4464-10778c2758-2758 6569-4464 10777-4464zm0-28952c12204 0 23252 4947 31249 12944s12944 19046 12944 31249c0 12204-4947 23252-12944 31249s-19046 12944-31249 12944-23252-4947-31249-12944-12944-19045-12944-31249c0-12203 4947-23252 12944-31249s19046-12944 31249-12944zm26256 17938c-6719-6719-16002-10876-26256-10876s-19537 4156-26256 10876c-6719 6719-10876 16002-10876 26256s4156 19536 10876 26256c6719 6719 16002 10875 26256 10875s19537-4156 26256-10875 10875-16002 10875-26256-4156-19537-10875-26256zM75549 0c38207 0 69182 30974 69182 69183 0 38207-30975 69182-69182 69182S6367 107390 6367 69183c0-19103 7744-36399 20263-48919C39149 7745 56445 0 75549 0zm57800 69183c0-31922-25878-57801-57800-57801-15962 0-30413 6470-40872 16929S17748 53221 17748 69183c0 31922 25878 57800 57800 57800s57800-25878 57800-57800zm-52366-5435c-1390-1391-3313-2251-5435-2251s-4044 860-5435 2251-2251 3313-2251 5435 860 4044 2251 5435 3313 2251 5435 2251 4044-860 5435-2251c1391-1390 2251-3313 2251-5435s-860-4044-2251-5435zm74145 17355c18768 15892 33109 36769 43778 61746 13278 31082 20869 68505 24253 110535 5970 17099 8739 30928 5834 41025-3143 10922-12220 17236-29825 18227-43633 11100-82347 18028-115291 20068-33316 2062-60787-891-81555-9596-1919-797-2830-3001-2033-4921s3000-2831 4921-2033c19681 8250 46042 11028 78225 9036 32475-2010 70825-8896 114185-19940l2 7c241-61 491-98 750-111 14085-715 21170-5148 23372-12800 2425-8428-232-20917-5767-36716-159-370-262-774-295-1198-3304-41455-10721-78253-23700-108636-9314-21802-21496-40303-37085-54850 211-2120 320-4269 320-6445 0-1140-31-2272-90-3397z" fill-rule="nonzero"/></svg>