<svg xmlns="http://www.w3.org/2000/svg" viewBox="0 0 1934 3333" shape-rendering="geometricPrecision" text-rendering="geometricPrecision" image-rendering="optimizeQuality" fill-rule="evenodd" clip-rule="evenodd"><path d="M338 0h1258c93 0 178 38 239 99s99 146 99 239v2657c0 93-38 178-99 239s-146 99-239 99H338c-93 0-178-38-239-99S0 3088 0 2995V338c0-93 38-178 99-239S245 0 338 0zm447 3065c-22 0-41-18-41-41 0-22 18-41 41-41h372c22 0 41 18 41 41 0 22-18 41-41 41H785zM750 194c36 0 65 29 65 65s-29 65-65 65-65-29-65-65 29-65 65-65zm217 0c36 0 65 29 65 65s-29 65-65 65-65-29-65-65 29-65 65-65zm217 0c36 0 65 29 65 65s-29 65-65 65-65-29-65-65 29-65 65-65zM81 2693h1772V521H81v2172zm1772 81H81v220c0 71 29 135 76 181 47 47 111 76 181 76h1258c71 0 135-29 181-76 47-47 76-111 76-181v-220zM81 439h1772V338c0-71-29-135-76-181-47-47-111-76-181-76H338c-71 0-135 29-181 76-47 47-76 111-76 181v101z" fill-rule="nonzero"/></svg>